<?xml version="1.0" encoding="UTF-8" standalone="no"?>
<svg version="1.1" viewBox="0 0 64 64" width="64" height="64" fill="#dddddd" id="clearsvg" xmlns="http://www.w3.org/2000/svg" xmlns:svg="http://www.w3.org/2000/svg">
  <g id="clear">
    <path id="path1" d="m 38.86,0.27 c 1.37,4.14 2.61,8.31 4.12,12.4 -4.37,-2.29 -8.16,-3.04 -13.07,-2.91 2.44,-2.5 4.78,-5.1 7.18,-7.65 0.59,-0.62 1.18,-1.23 1.77,-1.84 z" />
    <path id="path2" d="m 14.67,4.47 c 3.9,1.93 7.76,3.92 11.6,5.96 -4.75,1.54 -7.86,3.59 -11.22,7.27 C 15.02,13.28 14.79,8.88 14.67,4.47 Z" />
    <path id="path3" d="m 25.45,14.54 c 5.08,-1.94 11,-1.48 15.67,1.32 6.27,3.57 9.85,11.03 8.77,18.16 -1.07,8.42 -8.39,15.18 -16.88,15.59 -9,0.6 -17.33,-5.89 -18.91,-14.76 -1.71,-8.49 3.29,-17.27 11.35,-20.31 z" />
    <path id="path4" d="m 45.99,14.77 c 4.31,-0.12 8.62,-0.27 12.94,-0.42 -1.92,3.89 -3.97,7.71 -5.87,11.6 -1.13,-3.29 -2.59,-6.39 -4.98,-8.97 -0.7,-0.74 -1.39,-1.48 -2.09,-2.21 z" />
    <path id="path5" d="m 9.47,21.68 c 1.21,-0.39 2.41,-0.79 3.62,-1.19 -2.31,4.39 -3,8.18 -2.9,13.12 C 7.03,30.49 3.68,27.6 0.54,24.47 3.52,23.56 6.5,22.62 9.47,21.68 Z" />
    <path id="path6" d="m 53.68,29.65 c 3.13,3.02 6.41,5.87 9.46,8.96 -4.16,1.27 -8.29,2.63 -12.43,3.99 2.26,-4.29 3.07,-8.08 2.97,-12.95 z" />
    <path id="path7" d="m 10.75,37.01 c 1.63,4.71 3.65,7.84 7.24,11.29 -4.42,0.13 -8.83,0.32 -13.24,0.39 2.03,-3.88 3.99,-7.8 6,-11.68 z" />
    <path id="path8" d="m 48.63,45.53 c 0.1,4.38 0.3,8.75 0.41,13.12 -3.9,-2.03 -7.83,-4.01 -11.75,-6 4.75,-1.52 7.92,-3.5 11.34,-7.12 z" />
    <path id="path9" d="m 20.73,50.22 c 0.91,0.44 1.82,0.88 2.74,1.31 3.35,1.4 6.8,1.75 10.41,1.69 -3.03,3.18 -5.99,6.41 -9.01,9.59 -1.07,-3.17 -2.09,-6.36 -3.13,-9.55 -0.33,-1.01 -0.67,-2.03 -1.01,-3.04 z" />
  </g>
</svg>