<?xml version="1.0" encoding="UTF-8" standalone="no"?>
<svg version="1.1" viewBox="0 0 64 64" width="64" height="64" fill="#dddddd" id="cloudysvg" xmlns="http://www.w3.org/2000/svg" xmlns:svg="http://www.w3.org/2000/svg">
  <g id="cloudy">
    <path id="path1" d="m 27.01,1.05 c 6.28,-0.38 10.78,1.92 14.65,6.75 3.76,-0.17 7.19,-0.16 10.4,2.06 3.11,1.76 4.57,4.56 6.09,7.66 -2.96,-0.85 -5.47,-1.29 -8.52,-0.77 -3.51,-4.17 -6.9,-5.04 -12.24,-4.81 -3.23,-5.88 -8.67,-9.03 -15.33,-9.35 1.65,-0.5 3.31,-1 4.95,-1.54 z" />
    <path id="path2" d="m 26.58,7.31 c 3.36,1.69 5.27,4.65 6.53,8.08 5.65,-0.88 9.48,2.19 12.52,6.58 3.64,-0.1 7.01,-0.63 10.38,1.13 1.85,0.99 2.82,2.56 4.1,4.14 C 42.08,33.32 23.95,39.12 5.9,45.15 3.55,41.22 3.46,38.53 3.95,34.03 2.33,30.79 0.04,27.13 1.06,23.37 c 1.11,-4.31 5.59,-6.19 9.2,-7.98 0.71,-3.17 1.5,-6.01 4.19,-8.09 3.69,-1.77 8.48,-2.07 12.13,0.01 z" />
  </g>
</svg>