<?xml version="1.0" encoding="UTF-8" standalone="no"?>
<!DOCTYPE svg PUBLIC "-//W3C//DTD SVG 1.1//EN" "http://www.w3.org/Graphics/SVG/1.1/DTD/svg11.dtd">
<svg xmlns="http://www.w3.org/2000/svg" version="1.1" viewBox="0 0 50 48" width="50.0pt" height="48.0pt" fill="#DDDDDD">
<path d="M 30.99 2.93 C 37.33 2.83 42.99 5.04 48.36 8.20 C 47.05 9.97 45.91 11.77 45.00 13.78 C 40.90 15.76 38.10 18.74 35.37 22.30 C 32.91 22.65 30.61 23.27 28.26 24.09 C 32.86 31.16 38.11 37.66 44.03 43.63 C 47.13 43.44 45.16 39.83 45.45 37.79 C 46.49 37.95 47.51 38.14 48.53 38.36 C 49.17 40.22 49.23 42.06 49.42 44.01 C 47.15 46.06 45.38 48.29 41.95 47.11 C 39.29 45.99 37.41 42.53 35.88 40.18 C 33.54 34.70 29.61 30.78 26.22 25.77 C 23.93 27.81 21.84 29.95 19.83 32.26 C 13.99 32.41 8.29 32.81 2.81 35.01 C 2.31 30.23 2.30 25.55 4.08 21.00 C 5.96 15.84 9.56 12.12 13.72 8.70 C 12.78 7.43 11.83 6.16 10.89 4.89 C 11.59 4.37 12.29 3.86 13.00 3.34 C 13.95 4.61 14.89 5.89 15.83 7.17 C 20.63 4.69 25.50 2.82 30.99 2.93 Z" />
<path d="M 20.19 7.43 C 28.11 6.07 36.33 7.05 43.01 11.79 C 39.11 13.93 36.46 16.06 34.30 20.03 C 29.76 14.06 23.87 10.72 16.90 8.26 C 17.99 7.97 19.09 7.69 20.19 7.43 Z" fill="#000" />
<path d="M 15.46 13.42 C 17.18 17.98 18.68 22.54 21.35 26.67 C 20.54 27.68 19.73 28.69 18.92 29.70 C 17.44 25.45 15.88 21.37 15.67 16.81 C 15.59 15.68 15.52 14.55 15.46 13.42 Z" fill="#000" />
</svg>