<?xml version="1.0" encoding="UTF-8" standalone="no"?>
<svg version="1.1" viewBox="0 0 64 64" width="64" height="64" fill="#dddddd" id="rainysvg" xmlns="http://www.w3.org/2000/svg" xmlns:svg="http://www.w3.org/2000/svg">
   <path id="rainy" d="M 28.613463,1.5000674 C 23.208043,1.5122269 18.381774,3.3628795 13.622597,5.7917104 12.660527,4.4976818 11.698377,3.2030804 10.726072,1.9191616 9.9994027,2.4448607 9.2821087,2.9602534 8.5656727,3.4859525 9.5277437,4.7698712 10.500127,6.0538492 11.462197,7.337768 7.2045257,10.79525 3.5198627,14.556316 1.5957227,19.772868 -0.22607024,24.372735 -0.21585524,29.103789 0.29588476,33.936177 5.9045477,31.712065 11.738396,31.308175 17.715513,31.156531 c 2.057192,-2.335317 4.197402,-4.499501 6.541169,-6.561859 3.469592,5.064908 7.491025,9.029015 9.885966,14.569074 1.565922,2.375756 3.490382,5.872374 6.212836,7.004648 3.510532,1.192933 5.321309,-1.061113 7.644607,-3.133579 -0.194461,-1.971373 -0.25501,-3.83144 -0.910037,-5.711825 -1.043948,-0.222411 -2.088476,-0.414315 -3.152895,-0.576069 -0.296808,2.062358 1.720025,5.712258 -1.45276,5.90434 -6.058994,-6.035429 -11.432777,-12.607694 -16.14078,-19.755179 2.405175,-0.828987 4.759536,-1.455821 7.277294,-1.809657 2.794097,-3.599017 5.659718,-6.611203 9.855981,-8.612903 0.931366,-2.032029 2.098491,-3.8513414 3.439249,-5.6407406 -5.496081,-3.1946326 -11.289091,-5.4293671 -17.777947,-5.328271 -0.17559,-0.00346 -0.350364,-0.00484 -0.524733,-0.00445 z m -3.84854,3.9865777 c 5.909122,0.018985 11.707118,1.4941672 16.674509,4.9758179 -3.991568,2.163453 -6.703746,4.316541 -8.914461,8.33005 C 27.878378,12.757084 21.850687,9.3804595 14.71704,6.8934985 c 1.115591,-0.2931784 2.241458,-0.57682 3.367285,-0.839669 2.026488,-0.3437265 4.072446,-0.5386329 6.107889,-0.5642221 0.190824,-0.00237 0.382092,-0.00356 0.572709,-0.00296 z M 13.24329,12.109221 c 1.760384,4.609976 3.295742,9.22094 6.02843,13.396204 l -2.487233,3.062496 C 15.269738,24.271343 13.672611,20.147475 13.457681,15.537499 13.375802,14.395116 13.304699,13.251606 13.24329,12.109221 Z" />
</svg>