<?xml version="1.0" encoding="UTF-8" standalone="no"?>
<svg version="1.1" viewBox="0 0 64 64" width="64" height="64" fill="#dddddd" id="snowysvg" xmlns="http://www.w3.org/2000/svg" xmlns:svg="http://www.w3.org/2000/svg">
   <g id="snowy">
      <path id="bigsnow" d="m 23.714625,8.500031 c -0.583341,-0.00247 -1.1733,0.1426627 -1.767788,0.4340061 -0.544947,2.3208719 -0.346126,4.9287859 -0.316401,7.3187899 -1.030446,-0.987605 -2.081326,-1.965083 -3.111771,-2.952688 -1.208791,1.007357 -2.298085,2.053254 -3.348346,3.208751 1.288056,1.35302 2.595155,2.676699 3.912935,4.00009 -1.872636,1.402399 -3.784923,2.736013 -5.717007,4.059404 -0.644028,-1.412275 -1.287263,-2.825071 -1.911474,-4.237347 -1.6645653,0.414795 -2.9926993,1.087388 -4.4194691,2.035489 0.6638448,1.343144 1.3184966,2.696008 1.9724328,4.03915 -2.3977655,-0.790083 -4.766833,-1.699316 -7.2438639,-2.133863 -1.80327862,0.335786 -2.21969068,2.153558 -1.26851086,3.555957 2.06088976,1.12587 4.47872366,1.718413 6.69814326,2.449241 -1.0898939,0.641943 -2.1798259,1.27322 -3.2598114,1.905287 0.47559,1.461656 1.090184,2.854448 1.7837526,4.22722 1.7735544,-0.79996 3.5368131,-1.62978 5.3004596,-2.459368 0.653935,2.093722 1.337616,4.187792 2.00146,6.281515 -2.140155,0.365414 -4.2793226,0.68193 -6.4194773,0.988087 -0.1188975,1.728309 0.2473164,3.180185 0.8418038,4.789981 1.4862179,-0.276529 2.9726885,-0.553618 4.4688145,-0.820272 -1.416861,1.965335 -2.7845885,3.959853 -4.1320938,5.964691 0.3864176,0.790084 0.7630811,1.570909 1.1494979,2.360994 3.3390379,-0.04938 4.2016049,-2.982375 6.0246999,-5.234115 0.297244,1.224631 0.584308,2.45933 0.960817,3.654332 1.525851,0.177769 2.912428,-0.237604 4.37883,-0.593142 -0.307152,-2.083846 -0.623438,-4.167538 -0.940498,-6.261261 2.922897,0.0099 5.844671,0.01013 8.75766,0.01013 -0.307153,2.113475 -0.603564,4.226159 -0.880991,6.349509 1.109709,0.237026 2.218567,0.424497 3.338186,0.562762 1.763645,0.296281 1.545938,-2.686286 2.011619,-3.703519 1.208792,1.718433 2.447346,3.664651 4.002921,5.096678 2.16988,0.0395 2.427046,-0.266711 3.011625,-2.281425 -1.020537,-2.093722 -2.654971,-4.000244 -4.042108,-5.886569 1.47631,0.256776 2.942906,0.514307 4.409308,0.771083 0.842191,-1.619671 0.991045,-2.963605 0.981137,-4.761046 -2.169879,-0.335786 -4.349492,-0.650663 -6.509463,-1.035829 0.693568,-2.103598 1.406586,-4.197919 2.100154,-6.291641 1.69429,0.84934 3.407834,1.678967 5.121939,2.508555 0.653936,-1.323391 1.318497,-2.637638 1.972433,-3.961029 -1.06017,-0.701199 -2.110991,-1.34239 -3.052263,-2.191731 2.11043,-0.829588 4.379854,-1.422325 6.420928,-2.400054 1.06017,-1.511036 0.426049,-3.28911 -1.486218,-3.605144 -2.427491,0.513554 -4.776374,1.442405 -7.114691,2.242365 0.68366,-1.372771 1.367398,-2.745947 2.060967,-4.118718 -1.26824,-0.79996 -2.367713,-1.678948 -3.873748,-1.994982 -1.169158,1.096242 -1.852277,2.755823 -2.664743,4.118718 -1.833003,-1.32339 -3.666548,-2.637387 -5.509459,-3.950902 1.307873,-1.343142 2.60576,-2.686382 3.883908,-4.049277 -1.050262,-1.165374 -2.139807,-2.261654 -3.358506,-3.249259 -1.010629,1.017233 -2.021064,2.02515 -3.021785,3.042383 C 25.801581,13.931762 26.197693,11.225782 25.444676,8.9542908 24.874958,8.6530712 24.297965,8.5025001 23.714625,8.500031 Z m -0.0044,18.083588 c 2.199604,1.432027 4.330314,3.050677 6.420929,4.630846 -0.822375,2.508516 -1.664604,5.008218 -2.516702,7.506858 -2.605837,-0.0099 -5.211326,-0.0012 -7.817162,0.0087 -0.852068,-2.498641 -1.704457,-5.007023 -2.526831,-7.515539 2.11043,-1.580169 4.230285,-3.198819 6.439797,-4.630846 z" />
      <path id="littlesnow" d="m 55.912157,39.797658 c -0.552378,0 -1.104292,0.07924 -1.753274,0.237257 -0.0099,0.977729 -0.02032,1.944329 -0.02032,2.912182 -1.010629,-0.918473 -2.031727,-1.836271 -3.052264,-2.764619 l -2.050807,0.651009 c -0.227887,0.681447 -0.455715,1.362972 -0.683602,2.054295 0.911547,0.967853 1.812954,1.945524 2.734409,2.903501 -2.467123,0.414794 -3.635256,-0.117316 -3.159666,2.954135 0.812467,0.572811 1.861702,0.868514 3.159666,0.888266 -0.921455,0.948101 -1.83277,1.906463 -2.734409,2.86444 0.227887,0.691324 0.455715,1.382975 0.683602,2.064423 0.683661,0.217273 1.358439,0.423609 2.042099,0.640882 L 54.227101,52.418557 54.050033,55.5 c 1.238515,-0.0099 2.485739,-0.0099 3.724254,0 -0.05945,-1.02711 -0.11882,-2.054334 -0.168361,-3.081443 1.040353,0.928348 2.090537,1.856523 3.140798,2.784872 0.683661,-0.217273 1.358439,-0.423609 2.042099,-0.640882 0.227887,-0.681448 0.455716,-1.372848 0.683603,-2.054296 -0.901639,-0.967853 -1.812954,-1.926466 -2.73441,-2.874567 1.74383,-0.444422 3.565957,0.197714 3.219173,-2.271299 0.336876,-1.609796 -2.248177,-1.284696 -3.219173,-1.571102 0.921456,-0.957977 1.822862,-1.935648 2.73441,-2.903501 -0.227887,-0.691323 -0.455716,-1.372848 -0.683603,-2.054295 l -2.050807,-0.651009 c -1.020537,0.928348 -2.041635,1.846146 -3.052263,2.764619 0,-0.967853 -0.01041,-1.934453 -0.02032,-2.912182 -0.648988,-0.158016 -1.200902,-0.237257 -1.753279,-0.237257 z m 0.04935,6.103574 c 0.713385,0.543182 1.357935,1.175288 2.021779,1.767851 -0.703476,0.681447 -1.417248,1.352344 -2.130633,2.023915 -0.673753,-0.711076 -1.348028,-1.431718 -2.02178,-2.15267 0.693569,-0.572811 1.407341,-1.115666 2.130634,-1.639096 z" />
   </g>
</svg>