<?xml version="1.0" encoding="UTF-8" standalone="no"?>
<!DOCTYPE svg PUBLIC "-//W3C//DTD SVG 1.1//EN" "http://www.w3.org/Graphics/SVG/1.1/DTD/svg11.dtd">
<svg xmlns="http://www.w3.org/2000/svg" version="1.1" viewBox="0 0 68 52" width="68.0pt" height="52.0pt" fill="#DDDDDD">
  <path d="M 24.22 1.25 C 25.42 0.66 26.60 0.66 27.75 1.27 C 28.51 3.57 28.11 6.31 28.22 8.71 C 29.23 7.68 30.25 6.66 31.27 5.63 C 32.50 6.63 33.60 7.74 34.66 8.92 C 33.37 10.30 32.06 11.66 30.74 13.02 C 32.60 14.35 34.45 15.68 36.30 17.02 C 37.12 15.64 37.81 13.96 38.99 12.85 C 40.51 13.17 41.62 14.06 42.90 14.87 C 42.20 16.26 41.51 17.65 40.82 19.04 C 43.18 18.23 45.55 17.29 48.00 16.77 C 49.93 17.09 50.57 18.89 49.50 20.42 C 47.44 21.41 45.15 22.01 43.02 22.85 C 43.97 23.71 45.03 24.36 46.10 25.07 C 45.44 26.41 44.77 27.74 44.11 29.08 C 42.38 28.24 40.65 27.40 38.94 26.54 C 38.24 28.66 37.52 30.78 36.82 32.91 C 39.00 33.30 41.20 33.62 43.39 33.96 C 43.40 35.78 43.25 37.14 42.40 38.78 C 40.92 38.52 39.44 38.26 37.95 38.00 C 39.35 39.91 41.00 41.84 42.03 43.96 C 41.44 46.00 41.18 46.31 38.99 46.27 C 37.42 44.82 36.17 42.85 34.95 41.11 C 34.48 42.14 34.70 45.16 32.92 44.86 C 31.79 44.72 30.67 44.53 29.55 44.29 C 29.83 42.14 30.13 40.00 30.44 37.86 C 27.50 37.86 24.55 37.86 21.60 37.85 C 21.92 39.97 22.24 42.08 22.55 44.19 C 21.07 44.55 19.67 44.97 18.13 44.79 C 17.75 43.58 17.46 42.33 17.16 41.09 C 15.32 43.37 14.45 46.34 11.08 46.39 C 10.69 45.59 10.31 44.80 9.92 44.00 C 11.28 41.97 12.66 39.95 14.09 37.96 C 12.58 38.23 11.08 38.51 9.58 38.79 C 8.98 37.16 8.61 35.69 8.73 33.94 C 10.89 33.63 13.05 33.31 15.21 32.94 C 14.54 30.82 13.85 28.70 13.19 26.58 C 11.41 27.42 9.63 28.26 7.84 29.07 C 7.14 27.68 6.52 26.27 6.04 24.79 C 7.13 24.15 8.23 23.51 9.33 22.86 C 7.09 22.12 4.65 21.52 2.57 20.38 C 1.61 18.96 2.03 17.12 3.85 16.78 C 6.35 17.22 8.74 18.14 11.16 18.94 C 10.50 17.58 9.84 16.21 9.17 14.85 C 10.61 13.89 11.95 13.21 13.63 12.79 C 14.26 14.22 14.91 15.65 15.56 17.08 C 17.51 15.74 19.44 14.39 21.33 12.97 C 20.00 11.63 18.68 10.29 17.38 8.92 C 18.44 7.75 19.54 6.69 20.76 5.67 C 21.80 6.67 22.86 7.66 23.90 8.66 C 23.87 6.24 23.67 3.60 24.22 1.25 Z" />
  <path d="M 26.00 19.12 C 28.22 20.57 30.37 22.21 32.48 23.81 C 31.65 26.35 30.80 28.88 29.94 31.41 C 27.31 31.40 24.68 31.41 22.05 31.42 C 21.19 28.89 20.33 26.35 19.50 23.81 C 21.63 22.21 23.77 20.57 26.00 19.12 Z" fill="#000000" />
  <path d="M 60.27 32.74 C 60.28 33.73 60.29 34.71 60.29 35.69 C 61.31 34.76 62.34 33.83 63.37 32.89 C 64.06 33.11 64.75 33.33 65.44 33.55 C 65.67 34.24 65.90 34.93 66.13 35.63 C 65.21 36.61 64.30 37.60 63.37 38.57 C 64.35 38.86 66.96 38.53 66.62 40.16 C 66.97 42.66 65.13 42.01 63.37 42.46 C 64.30 43.42 65.22 44.39 66.13 45.37 C 65.90 46.06 65.67 46.76 65.44 47.45 C 64.75 47.67 64.07 47.88 63.38 48.10 C 62.32 47.16 61.26 46.22 60.21 45.28 C 60.26 46.32 60.32 47.36 60.38 48.40 C 59.13 48.39 57.87 48.39 56.62 48.40 C 56.68 47.36 56.74 46.32 56.80 45.28 C 55.74 46.22 54.68 47.16 53.62 48.10 C 52.93 47.88 52.25 47.67 51.56 47.45 C 51.33 46.76 51.10 46.06 50.87 45.36 C 51.78 44.39 52.70 43.42 53.63 42.46 C 52.32 42.44 51.26 42.14 50.44 41.56 C 49.96 38.45 51.14 38.99 53.63 38.57 C 52.70 37.60 51.79 36.61 50.87 35.63 C 51.10 34.93 51.33 34.24 51.56 33.55 C 52.25 33.33 52.94 33.11 53.63 32.89 C 54.66 33.83 55.69 34.76 56.71 35.69 C 56.71 34.71 56.72 33.73 56.73 32.74 C 58.04 32.42 58.96 32.42 60.27 32.74 Z" />
  <path d="M 58.55 38.68 C 59.27 39.23 59.92 39.87 60.59 40.47 C 59.88 41.16 59.16 41.84 58.44 42.52 C 57.76 41.80 57.08 41.07 56.40 40.34 C 57.10 39.76 57.82 39.21 58.55 38.68 Z" fill="#000000" />
</svg>